<svg xmlns="http://www.w3.org/2000/svg" viewBox="0 0 32 32" fill="none">
  <!-- 배경 원 -->
  <circle cx="16" cy="16" r="16" fill="#FF6B6B"/>

  <!-- 포크 -->
  <g fill="white">
    <!-- 포크 손잡이 -->
    <rect x="10" y="20" width="2" height="6" rx="1"/>
    <!-- 포크 갈퀴 -->
    <rect x="8" y="9" width="1.5" height="12" rx="0.75"/>
    <rect x="10.5" y="9" width="1.5" height="12" rx="0.75"/>
    <rect x="13" y="9" width="1.5" height="12" rx="0.75"/>
    <!-- 포크 연결부 -->
    <rect x="8" y="9" width="6.5" height="2" rx="1"/>
  </g>

  <!-- 나이프 -->
  <g fill="white">
    <!-- 나이프 손잡이 -->
    <rect x="20" y="20" width="2" height="6" rx="1"/>
    <!-- 나이프 날 -->
    <path d="M 21 9 L 21 21 L 19.5 21 L 19.5 10 C 19.5 9.5 20 9 20.5 9 Z"/>
  </g>

  <!-- 별 (리뷰 평점) -->
  <path d="M 16 5 L 17 8 L 20 8 L 17.5 10 L 18.5 13 L 16 11 L 13.5 13 L 14.5 10 L 12 8 L 15 8 Z" fill="#FFD700" stroke="white" stroke-width="0.5"/>
</svg>
